<?xml version="1.0" ?><!DOCTYPE svg  PUBLIC '-//W3C//DTD SVG 1.1//EN'  'http://www.w3.org/Graphics/SVG/1.1/DTD/svg11.dtd'><svg enable-background="new 0 0 512 512" height="512px" id="Layer_1" version="1.1" viewBox="0 0 512 512" width="512px" xml:space="preserve" xmlns="http://www.w3.org/2000/svg" xmlns:xlink="http://www.w3.org/1999/xlink"><path d="M263.257,410.21c21.467-2.567,49.307-7.666,77.277-14.938c-37.133-4.941-72.902-11.546-99.953-17.595  c-17.355-3.935-30.932-7.528-39.849-10.784c-41.773-15.245-66.697-56.016-66.598-99.399c0-13.252,2.288-26.887,7.127-40.166  c7.292-20.122,20.066-35.491,35.711-45.127c3.093-1.907,6.307-3.556,9.563-5.041c-6.269-5.021-12.054-10.126-17.134-15.187  c0,0-21.851-35.166-32.134-113.474C130.7-1.466,68.6-11.91,43.777,12.953C2.946,53.807,6.802,70.633,6.802,70.633  s32.856-7.751,41.653-2.654c15.283,8.797,11.73,71.2-4.859,155.813c-12.071,61.782-0.081,120.227,124.861,152.239  c2.772,3.816,5.844,7.351,9.138,10.645c9.34,13.675,27.074,38.04,42.981,50.409l-7.895,31.696l-72.12,13.692l5.163,27.075  l77.463-14.699L279.561,512l8.036-26.375l-47.139-14.314l7.893-31.732C255.021,432.869,259.658,420.817,263.257,410.21   M499.381,346.866c-4.618-6.267-12.048-13.816-21.406-21.771c-18.822-15.942-45.313-33.479-73.248-49.907  c-55.755-32.879-118.255-61.917-138.578-69.248c-12.474-4.562-25.305-6.974-37.217-6.974c-13.657,0-25.93,3.096-35.789,9.244  c-9.861,6.181-17.794,15.301-23.099,29.638c-3.595,9.885-5.3,19.928-5.3,29.646c0.101,32.059,18.035,60.333,46.494,70.661  c6.346,2.328,19.458,5.901,36.07,9.637c16.631,3.738,37.016,7.754,59.007,11.367c43.943,7.331,94.478,13.261,134.401,13.213  c14.904,0,28.302-0.844,39.024-2.549c10.768-1.668,18.761-4.477,22.454-6.965c2.45-1.65,2.854-2.576,2.975-2.816  c0.038-0.241,0.079-0.441,0.118-0.883C505.407,357.914,504.122,353.154,499.381,346.866"/></svg>