<?xml version="1.0" encoding="utf-8"?>
<!-- Generator: Adobe Illustrator 20.0.0, SVG Export Plug-In . SVG Version: 6.00 Build 0)  -->
<svg version="1.1" id="Layer_1" xmlns="http://www.w3.org/2000/svg" xmlns:xlink="http://www.w3.org/1999/xlink" x="0px" y="0px"
	 viewBox="0 0 24 24" style="enable-background:new 0 0 24 24;" xml:space="preserve">
<style type="text/css">
	.st0{fill:#FDB719;}
</style>
<path class="st0" d="M12,22C6.5,22,2,17.5,2,12S6.5,2,12,2s10,4.5,10,10S17.5,22,12,22z"/>
<g>
	<path d="M12,0C5.4,0,0,5.4,0,12s5.4,12,12,12s12-5.4,12-12S18.6,0,12,0z M12,22C6.5,22,2,17.5,2,12S6.5,2,12,2s10,4.5,10,10
		S17.5,22,12,22z"/>
	<path d="M12,7c1.4,0,2.6,0.6,3.5,1.5L17,7c-1.3-1.3-3-2-5-2C9.2,5,6.8,6.6,5.7,9H4v2h1.1C5,11.3,5,11.7,5,12s0,0.7,0.1,1H4v2h1.7
		c1.1,2.4,3.5,4,6.3,4c1.8,0,3.4-0.7,4.6-1.7l-1.3-1.5c-0.9,0.8-2,1.3-3.3,1.3c-1.6,0-3.1-0.8-4-2h4v-2H7.1C7,12.7,7,12.3,7,12
		s0-0.7,0.1-1H12V9H8C8.9,7.8,10.4,7,12,7z"/>
</g>
</svg>
