<?xml version="1.0" ?><!DOCTYPE svg  PUBLIC '-//W3C//DTD SVG 1.1//EN'  'http://www.w3.org/Graphics/SVG/1.1/DTD/svg11.dtd'><svg enable-background="new 0 0 24 24" height="24px" id="Layer_1" version="1.1" viewBox="0 0 24 24" width="24px" xml:space="preserve" xmlns="http://www.w3.org/2000/svg" xmlns:xlink="http://www.w3.org/1999/xlink"><g><path d="M12,0C7,0,3,4,3,9c0,1.1,0.2,2.1,0.5,3L6,17c0.3,0.4,0.6,0.8,1,1c0,0,0,0,0,0v1c0,0.6,0.4,1,1,1v1c0,0.6,0.4,1,1,1v1   c0,0.6,0.4,1,1,1h4c0.6,0,1-0.4,1-1v-1c0.6,0,1-0.4,1-1v-1c0.6,0,1-0.4,1-1v-1c0,0,0,0,0-0.1c0.4-0.1,0.8-0.5,1-0.9l2.5-5   c0.3-0.9,0.5-1.9,0.5-3C21,4,17,0,12,0z M14,23h-4v-1h4V23z M15,21h-1h-4H9v-1h6V21z M16,19h-1H9H8v-1h8V19z M18.3,12l-2,4H7.7   l-2-4C5.2,11.1,5,10.1,5,9c0-3.9,3.1-7,7-7s7,3.1,7,7C19,10.1,18.8,11.1,18.3,12z"/><path d="M12,3v1c2.8,0,5,2.2,5,5h1C18,5.7,15.3,3,12,3z"/></g></svg>