<?xml version="1.0" ?><!DOCTYPE svg  PUBLIC '-//W3C//DTD SVG 1.1//EN'  'http://www.w3.org/Graphics/SVG/1.1/DTD/svg11.dtd'><svg enable-background="new 0 0 512 512" height="512px" id="Layer_1" version="1.1" viewBox="0 0 512 512" width="512px" xml:space="preserve" xmlns="http://www.w3.org/2000/svg" xmlns:xlink="http://www.w3.org/1999/xlink"><path d="M255.991,0C114.606,0,0.008,114.669,0.008,256.016C0.008,397.4,114.606,512,255.991,512  c141.384,0,256.001-114.601,256.001-255.984C511.993,114.668,397.376,0,255.991,0 M255.991,475.297  c-120.917,0-219.266-98.402-219.266-219.282c0-120.916,98.348-219.279,219.266-219.279c120.916,0,219.279,98.363,219.279,219.279  C475.273,376.895,376.907,475.297,255.991,475.297 M255.991,76.574c-99.086,0-179.446,80.354-179.446,179.44  c0,99.131,80.36,179.449,179.446,179.449c99.104,0,179.443-80.318,179.443-179.449C435.435,156.928,355.096,76.574,255.991,76.574   M299.519,223.782l-9.798,22.741H218.95l-0.339,13.273h67.307l-9.783,22.743h-54.987c6.752,33.291,22.319,49.899,46.76,49.899  c15.795,0,32.008-6.616,48.653-19.898l-0.302,47.747c-14.11,8.206-30.343,12.33-48.653,12.33c-26.541,0-47.935-8.515-64.129-25.613  c-14.754-15.364-24.345-36.848-28.751-64.465h-24.349l9.818-22.743h12.64v-8.209c0-2.952,0.09-4.647,0.303-5.064h-23.063  l9.783-22.741h16.114c5.069-25.499,15.494-45.592,31.288-60.347c16.628-16.001,37.475-24.026,62.541-24.026  c17.706,0,36.869,5.298,57.509,15.824l-19.258,39.456c-14.756-9.422-28.567-14.189-41.394-14.189  c-22.112,0-36.887,14.457-44.246,43.282L299.519,223.782L299.519,223.782z"/></svg>