<?xml version="1.0" encoding="utf-8"?>
<!-- Generator: Adobe Illustrator 20.0.0, SVG Export Plug-In . SVG Version: 6.00 Build 0)  -->
<svg version="1.1" id="Layer_1" xmlns="http://www.w3.org/2000/svg" xmlns:xlink="http://www.w3.org/1999/xlink" x="0px" y="0px"
	 viewBox="0 0 24 24" style="enable-background:new 0 0 24 24;" xml:space="preserve">
<style type="text/css">
	.st0{fill:#FDB719;}
</style>
<g>
	<path d="M23,4l-5,1.4c0,0.2,0,0.4,0,0.6c0-3.3-2.7-6-6-6c-1.9,0-3.5,0.8-4.6,2.2l0,0L1,4C0.4,4,0,4.4,0,5v16c0,0.6,0.4,1,1,1l7-2
		l8,4l7-2c0.6,0,1-0.4,1-1V5C24,4.4,23.6,4,23,4z M12,1c2.8,0,5,2.2,5,5s-1,3.5-5,7.5C8,9.5,7,8.8,7,6S9.2,1,12,1z M2,20V6l4.2-1.4
		C6.1,5.1,6,5.5,6,6c0,2.1,0.4,3.2,2,4.9V18L2,20z M7,2.7C7,2.7,7,2.8,7,2.7L7,2.7z M6.7,3.3C6.6,3.3,6.6,3.3,6.7,3.3
		C6.6,3.3,6.6,3.3,6.7,3.3z M6.4,3.9C6.4,3.9,6.4,4,6.4,3.9C6.4,4,6.4,3.9,6.4,3.9z M22,20l-6,2V10.9c1.2-1.3,1.7-2.3,1.9-3.6L22,6
		V20z"/>
	<path d="M12,9c1.7,0,3-1.3,3-3s-1.3-3-3-3S9,4.3,9,6S10.3,9,12,9z M12,4c1.1,0,2,0.9,2,2s-0.9,2-2,2s-2-0.9-2-2S10.9,4,12,4z"/>
</g>
<path class="st0" d="M2,20V6l4.2-1.4C6.1,5.1,6,5.5,6,6c0,2.1,0.4,3.2,2,4.9V18L2,20z"/>
<path class="st0" d="M12,15c1.2-1.2,2.2-2.2,3-3v9.5l-6-3V12C9.8,12.8,10.8,13.8,12,15z"/>
<path class="st0" d="M22,20l-6,2V10.9c1.2-1.3,1.7-2.3,1.9-3.6L22,6V20z"/>
</svg>
